# xmcd
#
# Track frame offsets: 
#        150
#        16563
#        38841
#        58306
#        76190
#        93396
#        115445
#        132502
#        149700
#        163094
#        183805
#        202720
#
# Disc length: 2898 seconds
#
# Revision: 0
# Processed by: cddbd v1.5.2PL0 Copyright (c) Steve Scherf et al.
# Submitted via: ExactAudioCopy v0.99pb5
#
DISCID=9e0b500c
DTITLE=Steve Guyger and T. Leino Band - Keep It Moving
DYEAR=2007
DGENRE=Blues
TTITLE0=Oh Baby
TTITLE1=My Baby's Gone
TTITLE2=You Know, Yeah!
TTITLE3=Red Hot Kisses
TTITLE4=Mumbo In Helsinki
TTITLE5=Come Home Baby
TTITLE6=Better Cut That Out
TTITLE7=Slappin' The Googie
TTITLE8=Just Can't Take It Anymore
TTITLE9=Come, Come Back Baby
TTITLE10=Springtime Blues
TTITLE11=Jumpin' At Sauna
EXTD=
EXTT0=
EXTT1=
EXTT2=
EXTT3=
EXTT4=
EXTT5=
EXTT6=
EXTT7=
EXTT8=
EXTT9=
EXTT10=
EXTT11=
PLAYORDER=
